<svg xmlns="http://www.w3.org/2000/svg" version="1.1" xmlns:xlink="http://www.w3.org/1999/xlink" xmlns:svgjs="http://svgjs.dev/svgjs" width="1000" height="1000" viewBox="0 0 1000 1000"><rect width="1000" height="1000" fill="#ffffff"></rect><g transform="matrix(0.7,0,0,0.7,150.0000000000001,106.25)"><svg viewBox="0 0 320 360" data-background-color="#ffffff" preserveAspectRatio="xMidYMid meet" height="1125" width="1000" xmlns="http://www.w3.org/2000/svg" xmlns:xlink="http://www.w3.org/1999/xlink"><g id="tight-bounds" transform="matrix(1,0,0,1,0,0)"><svg viewBox="0 0 320 360" height="360" width="320"><g><svg></svg></g><g><svg viewBox="0 0 320 360" height="360" width="320"><g><path xmlns="http://www.w3.org/2000/svg" d="M20.961 227.22l3.726 4.658-1.863-6.056c-0.466-2.795-3.726 0.466-1.863 1.398M25.153 224.425c1.397 2.329 2.795 4.658 2.795 6.987 0 3.261 2.795 4.658 5.123 5.589-3.261-3.726-5.124-13.974-7.918-12.576M204.017 26.929c7.918 0 15.371-0.932 23.756 0.931 20.495 5.124 37.729 15.371 49.374 29.811l32.606 52.169c1.397 13.042 4.192 27.482 3.726 43.319 3.261 0 2.795-4.658 6.521-5.59-3.726 9.316-5.59 20.961-6.521 34.469-2.329-7.453 0-18.632 0.466-24.687-3.261 5.124-5.124 1.397-5.124-0.932 0.466-3.726-1.397-3.261-2.795-4.658-5.124-4.658-8.384-9.782-12.11-17.7 2.329-6.055 2.795-14.905-4.658-19.563-2.329-1.397-5.124-3.726-6.521-7.453-1.863-5.124-5.124-11.179-4.193-19.097 0.466-2.329-6.987 5.124-11.179 1.863-18.166-12.576-36.332-27.016-58.224-39.127-11.645 0-20.029-4.192-24.221-9.316-3.726-4.658-0.932-10.713 4.658-11.179 3.261 0 6.987-0.932 9.782 0.932 0.466-1.863 2.329-4.192 4.657-4.192M157.904 16.215l0.932 0.466c4.658 0.932 6.987 7.453 12.11 5.124 0 3.261 0.466 6.521-0.466 8.85-1.397 3.726-5.59 3.726-8.85 3.726-31.208-1.863-49.374 11.179-68.471 22.358-5.124 3.261-10.713 5.59-14.906 9.782-20.029 18.632-41.921 35.866-47.045 70.335l-4.192 38.195c-0.466 4.192-5.124 8.384-4.192 13.508l3.26 22.824c-3.261-3.261-5.124 0.932-4.192 2.795 0.466 1.397 2.329 6.055 5.124 1.863 3.726 6.987 7.453 20.495 12.576 26.55 15.837 18.632 36.332 35.4 53.101 52.169 4.192-0.932 7.453-0.932 8.384-3.727 1.397 2.795-1.397 5.59-3.726 6.056 7.453 4.658 15.837 8.85 27.016 9.781 14.44 0.932 27.948 3.261 40.524 6.522 6.521-1.863 13.042-2.795 20.029-3.261 2.329 0 3.726-3.726 6.521-4.658l0.466-4.658c2.795 4.192 2.329-1.397 0.466-4.192 3.261 2.795 4.192 5.124 5.589 6.987 0-1.397 3.726-6.521 3.727-0.466l0.931-6.055c1.397-0.932 1.863 5.124 3.261 0.931 1.397-4.192 4.192-0.932 6.987-2.329-0.932 1.863-0.466 5.59 2.794 3.261l3.727-3.261c2.329 5.59 6.055 3.261 7.918 2.329 20.495-13.042 40.99-28.413 60.553-43.784l-0.466 6.055 2.329-7.453c2.329 2.329 4.192 0.466 5.124-0.931 2.795-4.658 6.521-9.316 12.577-13.508-7.453 20.029-16.303 35.866-27.482 48.908l-4.658 5.59c0 3.261-0.932 7.453-4.658 7.918-1.863 0.466-5.59-0.932-8.384 1.863-1.397 1.863 3.261 5.59-0.466 2.795-3.261-2.329-6.521 0-10.248 0.932-2.795 0.932 1.863 3.726 2.795 5.589 0.932 1.863 1.863 3.726 1.398 6.056l-5.124-5.59c-6.055 3.261-9.782 9.316-14.906 13.974-2.329 1.863-1.397 5.124-1.397 7.918-3.261 0-6.987-0.932-8.85 0.932-1.397 1.863-0.932 4.658-0.932 7.453-4.658-0.466-5.124-7.453-9.315-6.056-4.192 0.932-8.85 1.397-12.577 3.727 2.795 5.59-4.658 2.329-3.726 3.26-6.987-4.192-13.042-7.453-20.495-4.658-15.837-5.124-35.4-2.795-49.84-0.931 0-2.329 0.466-4.658-0.466-5.124-0.932 2.329-3.726 1.397-3.26 1.397-8.85-6.055-17.7-9.782-27.016-14.905-8.384 0.932-16.303-3.261-18.632-5.59-6.521-6.055-13.974-2.795-20.029-4.192-13.042-3.261-17.7-16.769-19.098-26.084-0.932-4.658-4.658-6.521-6.055-6.056-6.055-19.563-15.371-37.263-22.824-55.429-1.863-4.658-1.397-9.316-1.397-14.44 2.329 0.932 4.658 0.466 4.192-2.794-2.329-15.371-7.918-27.016-13.974-38.195 3.261-15.837 3.726-34.469 11.179-48.443 6.521-12.576 18.632-19.098 27.016-29.811 2.795-3.726 2.795-8.85 5.59-12.11 9.316-9.316 18.632-19.098 28.879-27.482 4.658-3.726 10.247 0 17.234-1.397 2.329-8.384 11.645-15.837 20.495-13.508 3.726 0.932 11.179-8.85 13.508-9.782 3.726-1.397 1.863 3.726 1.863 6.987 8.85-6.987 20.961-10.713 32.14-14.906" fill="#6b7280" fill-rule="nonzero" stroke="none" stroke-width="1" stroke-linecap="butt" stroke-linejoin="miter" stroke-miterlimit="10" stroke-dasharray="" stroke-dashoffset="0" font-family="none" font-weight="none" font-size="none" text-anchor="none" style="mix-blend-mode: normal" data-fill-palette-color="tertiary"></path></g><g transform="matrix(1,0,0,1,91.97052751292931,90)"><svg viewBox="0 0 136.05894497414138 180" height="180" width="136.05894497414138"><g><svg viewBox="0 0 136.05894497414138 180" height="180" width="136.05894497414138"><g><svg viewBox="0 0 192 254.00755537659273" height="180" width="136.05894497414138"><g transform="matrix(1,0,0,1,0,104.17041799907362)"><svg viewBox="0 0 192 149.8371373775191" height="149.8371373775191" width="192"><g><svg viewBox="0 0 192 149.8371373775191" height="149.8371373775191" width="192"><g><svg viewBox="0 0 192 117.27031019202362" height="117.27031019202362" width="192"><g transform="matrix(1,0,0,1,0,0)"><svg width="192" viewBox="3.1500000953674316 -40.849998474121094 67.68999481201172 41.349998474121094" height="117.27031019202362" data-palette-color="#6b7280"><path d="M7.95 0L3.15 0 3.15-40.5 7-40.5 18.5-13.6 18.5-40.5 23.2-40.5 23.2 0 19.6 0 7.95-27.65 7.95 0ZM45.35 0L29.55 0 29.55-40.5 45.25-40.5 45.25-36.3 35.2-36.3 35.2-22.9 43.35-22.9 43.35-18.9 35.2-18.9 35.2-4.05 45.35-4.05 45.35 0ZM59.55 0.5L59.55 0.5Q55.75 0.5 53.47-1.13 51.2-2.75 50.17-5.85 49.15-8.95 49.15-13.3L49.15-13.3 49.15-26.85Q49.15-31.3 50.07-34.43 51-37.55 53.37-39.2 55.75-40.85 60-40.85L60-40.85Q63.8-40.85 66.12-39.58 68.45-38.3 69.5-35.68 70.55-33.05 70.55-29.05L70.55-29.05 70.55-27.55 65.25-27.55 65.25-28.8Q65.25-31.45 64.9-33.13 64.55-34.8 63.47-35.63 62.4-36.45 60.1-36.45L60.1-36.45Q57.6-36.45 56.47-35.3 55.35-34.15 55.07-32.18 54.8-30.2 54.8-27.7L54.8-27.7 54.8-12.7Q54.8-9.8 55.22-7.85 55.65-5.9 56.85-4.95 58.05-4 60.25-4L60.25-4Q62.45-4 63.65-5.05 64.84-6.1 65.3-8.15 65.75-10.2 65.75-13.25L65.75-13.25 65.75-16.05 60.6-16.05 60.6-20.05 70.84-20.05 70.84 0 67.3 0 66.75-4.65Q65.95-2.4 64.25-0.95 62.55 0.5 59.55 0.5Z" opacity="1" transform="matrix(1,0,0,1,0,0)" fill="#6b7280" class="undefined-text-0" data-fill-palette-color="primary" id="text-0"></path></svg></g></svg></g><g transform="matrix(1,0,0,1,0,134.38286293648446)"><svg viewBox="0 0 192 15.454274441034634" height="15.454274441034634" width="192"><g transform="matrix(1,0,0,1,0,0)"><svg width="192" viewBox="1.7999999523162842 -35 570.2000122070312 45.900001525878906" height="15.454274441034634" data-palette-color="#000000"><path d="M29.1-11.9L33.95-11.9 33.95 0 1.8 0 1.8-4.15 8.25-4.15 8.25-30.15 1.8-30.15 1.8-34.3 19.8-34.3 19.8-30.15 13.4-30.15 13.4-4.15 29.1-4.15 29.1-11.9ZM60.35-6.7L62.45-3.5Q57.65 0.7 51.5 0.7L51.5 0.7Q48.15 0.7 45.15-0.7 42.15-2.1 40.3-4.8 38.45-7.5 38.45-11.2L38.45-11.2Q38.45-15.15 40.35-18.1 42.25-21.05 45.3-22.63 48.35-24.2 51.7-24.2L51.7-24.2Q54.65-24.2 56.97-23.25 59.3-22.3 60.62-20.6 61.95-18.9 61.95-16.7L61.95-16.7Q61.95-13.4 59.12-11.58 56.3-9.75 52.35-9.75L52.35-9.75Q49.8-9.75 47.6-10.28 45.4-10.8 43.15-11.8L43.15-11.8 43.15-11.35Q43.15-9 44.27-7.2 45.4-5.4 47.3-4.45 49.2-3.5 51.45-3.5L51.45-3.5Q56.55-3.5 60.35-6.7L60.35-6.7ZM52.05-20.3Q49.35-20.3 47.02-18.75 44.7-17.2 43.7-14.55L43.7-14.55Q47.5-13.2 51.3-13.2L51.3-13.2Q53.8-13.2 55.42-14.13 57.05-15.05 57.05-16.7L57.05-16.7Q57.05-18.3 55.65-19.3 54.25-20.3 52.05-20.3L52.05-20.3ZM92.3-4.15L93.3-0.6Q91.65 0.4 89.45 0.4L89.45 0.4Q87.6 0.4 86.32-0.68 85.05-1.75 84.55-3.75L84.55-3.75Q79.55 0.7 74.65 0.7L74.65 0.7Q71.2 0.7 68.8-1.25 66.4-3.2 66.4-6.7L66.4-6.7Q66.4-9.1 67.75-10.88 69.1-12.65 71.37-13.58 73.65-14.5 76.3-14.5L76.3-14.5Q78.55-14.5 80.45-14.08 82.35-13.65 84.35-12.85L84.35-12.85 84.35-15.05Q84.35-17.6 82.65-18.8 80.95-20 78.2-20L78.2-20Q74.3-20 68.8-17.85L68.8-17.85 67.8-21.65Q73.7-24.15 78.8-24.15L78.8-24.15Q83.65-24.15 86.32-21.78 89-19.4 89-14.85L89-14.85 89-6.2Q89-3.75 90.75-3.75L90.75-3.75Q91.5-3.75 92.3-4.15L92.3-4.15ZM71.25-6.95Q71.25-5.25 72.6-4.33 73.95-3.4 75.9-3.4L75.9-3.4Q77.6-3.4 79.8-4.3 82-5.2 84.35-6.95L84.35-6.95 84.35-9.6Q80.95-10.8 77.15-10.9L77.15-10.9Q74.7-10.9 72.97-9.88 71.25-8.85 71.25-6.95L71.25-6.95ZM116.89-24.15L118.99-24.15 118.99-14.15 114.64-14.15 114.64-19.3Q112.69-19.3 110.39-17.85 108.09-16.4 105.64-13.75L105.64-13.75 105.64-3.95 110.99-3.95 110.99 0 95.44 0 95.44-3.95 100.74-3.95 100.74-19.6 95.44-19.6 95.44-23.55 105.64-23.55 105.64-17.65Q108.29-20.7 111.17-22.43 114.04-24.15 116.89-24.15L116.89-24.15ZM152.44-3.95L157.14-3.95 157.14 0 143.24 0 143.24-3.95 147.59-3.95 147.59-13.7Q147.59-16.45 146.22-18.03 144.84-19.6 142.29-19.6L142.29-19.6Q137.94-19.6 133.09-14.1L133.09-14.1 133.09-3.95 137.44-3.95 137.44 0 122.89 0 122.89-3.95 128.19-3.95 128.19-19.6 122.89-19.6 122.89-23.55 133.09-23.55 133.09-18Q135.89-21.1 138.47-22.63 141.04-24.15 143.99-24.15L143.99-24.15Q148.04-24.15 150.24-21.55 152.44-18.95 152.44-13.85L152.44-13.85 152.44-3.95ZM166.49-28.9Q164.89-28.9 163.79-29.75 162.69-30.6 162.69-31.9L162.69-31.9Q162.69-33.25 163.79-34.13 164.89-35 166.49-35L166.49-35Q168.19-35 169.29-34.13 170.39-33.25 170.39-31.9L170.39-31.9Q170.39-30.6 169.29-29.75 168.19-28.9 166.49-28.9L166.49-28.9ZM169.49-3.95L174.84-3.95 174.84 0 159.29 0 159.29-3.95 164.59-3.95 164.59-19.6 159.29-19.6 159.29-23.55 169.49-23.55 169.49-3.95ZM206.59-3.95L211.29-3.95 211.29 0 197.39 0 197.39-3.95 201.74-3.95 201.74-13.7Q201.74-16.45 200.36-18.03 198.99-19.6 196.44-19.6L196.44-19.6Q192.09-19.6 187.24-14.1L187.24-14.1 187.24-3.95 191.59-3.95 191.59 0 177.04 0 177.04-3.95 182.34-3.95 182.34-19.6 177.04-19.6 177.04-23.55 187.24-23.55 187.24-18Q190.04-21.1 192.61-22.63 195.19-24.15 198.14-24.15L198.14-24.15Q202.19-24.15 204.39-21.55 206.59-18.95 206.59-13.85L206.59-13.85 206.59-3.95ZM232.33-4.45Q235.53-4.45 237.51-2.85 239.48-1.25 239.48 1.65L239.48 1.65Q239.48 4.45 237.38 6.55 235.28 8.65 231.73 9.78 228.18 10.9 224.03 10.9L224.03 10.9Q218.98 10.9 215.76 9.03 212.53 7.15 212.53 3.9L212.53 3.9Q212.53 2.45 213.31 1.18 214.08-0.1 215.28-1.05L215.28-1.05Q214.28-1.8 213.76-2.83 213.23-3.85 213.23-5L213.23-5Q213.23-6.85 214.28-8.33 215.33-9.8 217.03-10.8L217.03-10.8Q215.33-12.9 215.33-15.6L215.33-15.6Q215.33-18.3 216.91-20.25 218.48-22.2 220.93-23.2 223.38-24.2 225.93-24.2L225.93-24.2Q228.88-24.2 231.38-23.1L231.38-23.1Q232.28-25.7 234.31-27.05 236.33-28.4 239.13-28.5L239.13-28.5 239.13-24.4Q237.18-24.3 235.86-23.75 234.53-23.2 233.53-21.85L233.53-21.85Q236.63-19.5 236.63-15.75L236.63-15.75Q236.63-13.05 235.08-11.1 233.53-9.15 231.06-8.15 228.58-7.15 225.93-7.15L225.93-7.15Q222.08-7.15 219.03-9.05L219.03-9.05Q217.53-7.7 217.53-6.15L217.53-6.15Q217.53-4.85 218.56-4.13 219.58-3.4 221.38-3.4L221.38-3.4Q223.08-3.4 226.48-3.9L226.48-3.9Q227.83-4.1 229.38-4.28 230.93-4.45 232.33-4.45L232.33-4.45ZM225.98-20.7Q223.53-20.7 221.83-19.28 220.13-17.85 220.13-15.6L220.13-15.6Q220.13-13.35 221.81-12 223.48-10.65 225.98-10.65L225.98-10.65Q228.58-10.65 230.21-12.05 231.83-13.45 231.83-15.75L231.83-15.75Q231.83-18 230.16-19.35 228.48-20.7 225.98-20.7L225.98-20.7ZM224.73 6.85Q227.38 6.85 229.76 6.25 232.13 5.65 233.56 4.53 234.98 3.4 234.98 1.95L234.98 1.95Q234.98-0.6 231.28-0.6L231.28-0.6Q230.28-0.6 229.08-0.45 227.88-0.3 226.73-0.1L226.73-0.1Q225.33 0.15 223.71 0.35 222.08 0.55 220.53 0.55L220.53 0.55Q219.18 0.55 217.78 0.2L217.78 0.2Q216.78 1.35 216.78 2.9L216.78 2.9Q216.78 4.75 218.88 5.8 220.98 6.85 224.73 6.85L224.73 6.85ZM301.23-34.3L301.23-30.15 294.98-30.15 294.98 0.3 292.43 0.35 268.38-27 268.38-4.15 274.53-4.15 274.53 0 257.03 0 257.03-4.15 263.48-4.15 263.48-30.15 257.03-30.15 257.03-34.3 268.38-34.3 290.18-8.95 290.18-30.15 283.73-30.15 283.73-34.3 301.23-34.3ZM325.33-6.7L327.43-3.5Q322.63 0.7 316.48 0.7L316.48 0.7Q313.13 0.7 310.13-0.7 307.13-2.1 305.28-4.8 303.43-7.5 303.43-11.2L303.43-11.2Q303.43-15.15 305.33-18.1 307.23-21.05 310.28-22.63 313.33-24.2 316.68-24.2L316.68-24.2Q319.63-24.2 321.95-23.25 324.28-22.3 325.6-20.6 326.93-18.9 326.93-16.7L326.93-16.7Q326.93-13.4 324.1-11.58 321.28-9.75 317.33-9.75L317.33-9.75Q314.78-9.75 312.58-10.28 310.38-10.8 308.13-11.8L308.13-11.8 308.13-11.35Q308.13-9 309.25-7.2 310.38-5.4 312.28-4.45 314.18-3.5 316.43-3.5L316.43-3.5Q321.53-3.5 325.33-6.7L325.33-6.7ZM317.03-20.3Q314.33-20.3 312-18.75 309.68-17.2 308.68-14.55L308.68-14.55Q312.48-13.2 316.28-13.2L316.28-13.2Q318.78-13.2 320.4-14.13 322.03-15.05 322.03-16.7L322.03-16.7Q322.03-18.3 320.63-19.3 319.23-20.3 317.03-20.3L317.03-20.3ZM359.47-23.55L359.47-19.6 355.57-19.6 345.12 0.65 342.62 0.65 331.97-19.6 328.37-19.6 328.37-23.55 341.12-23.55 341.12-19.95 337.17-19.95 344.37-5.45 351.42-19.95 347.37-19.95 347.37-23.55 359.47-23.55ZM382.77-6.7L384.87-3.5Q380.07 0.7 373.92 0.7L373.92 0.7Q370.57 0.7 367.57-0.7 364.57-2.1 362.72-4.8 360.87-7.5 360.87-11.2L360.87-11.2Q360.87-15.15 362.77-18.1 364.67-21.05 367.72-22.63 370.77-24.2 374.12-24.2L374.12-24.2Q377.07-24.2 379.4-23.25 381.72-22.3 383.05-20.6 384.37-18.9 384.37-16.7L384.37-16.7Q384.37-13.4 381.55-11.58 378.72-9.75 374.77-9.75L374.77-9.75Q372.22-9.75 370.02-10.28 367.82-10.8 365.57-11.8L365.57-11.8 365.57-11.35Q365.57-9 366.7-7.2 367.82-5.4 369.72-4.45 371.62-3.5 373.87-3.5L373.87-3.5Q378.97-3.5 382.77-6.7L382.77-6.7ZM374.47-20.3Q371.77-20.3 369.45-18.75 367.12-17.2 366.12-14.55L366.12-14.55Q369.92-13.2 373.72-13.2L373.72-13.2Q376.22-13.2 377.85-14.13 379.47-15.05 379.47-16.7L379.47-16.7Q379.47-18.3 378.07-19.3 376.67-20.3 374.47-20.3L374.47-20.3ZM409.67-24.15L411.77-24.15 411.77-14.15 407.42-14.15 407.42-19.3Q405.47-19.3 403.17-17.85 400.87-16.4 398.42-13.75L398.42-13.75 398.42-3.95 403.77-3.95 403.77 0 388.22 0 388.22-3.95 393.52-3.95 393.52-19.6 388.22-19.6 388.22-23.55 398.42-23.55 398.42-17.65Q401.07-20.7 403.94-22.43 406.82-24.15 409.67-24.15L409.67-24.15ZM447.91-19.4Q454.51-17.55 457.86-15.05 461.21-12.55 461.21-8.4L461.21-8.4Q461.21-5.7 459.74-3.63 458.26-1.55 455.66-0.45 453.06 0.65 449.81 0.65L449.81 0.65Q446.26 0.65 443.06-0.85 439.86-2.35 437.16-5.05L437.16-5.05 437.16-0.05 432.61-0.05 432.61-11.6 435.51-11.75Q438.16-7.9 441.96-5.7 445.76-3.5 449.51-3.5L449.51-3.5Q452.31-3.5 454.09-4.7 455.86-5.9 455.86-7.95L455.86-7.95Q455.86-10.2 453.36-11.83 450.86-13.45 444.86-15L444.86-15Q438.61-16.65 435.71-19.33 432.81-22 432.81-25.9L432.81-25.9Q432.81-28.6 434.29-30.68 435.76-32.75 438.26-33.88 440.76-35 443.71-35L443.71-35Q450.66-35 454.96-29.9L454.96-29.9 454.96-34.3 459.51-34.3 459.51-22.9 456.71-22.75Q454.61-26.75 451.56-28.8 448.51-30.85 444.86-30.85L444.86-30.85Q441.91-30.85 440.04-29.58 438.16-28.3 438.16-26.15L438.16-26.15Q438.16-23.95 440.44-22.38 442.71-20.8 447.91-19.4L447.91-19.4ZM484.06-5.35L485.76-1.65Q483.91-0.55 482.13 0.05 480.36 0.65 478.06 0.65L478.06 0.65Q474.21 0.65 471.94-1.78 469.66-4.2 469.66-8.7L469.66-8.7 469.66-19.6 464.41-19.6 464.41-23.55 469.66-23.55 469.66-30.1 474.56-30.1 474.56-23.55 482.36-23.55 482.36-19.6 474.56-19.6 474.56-8.65Q474.56-6.1 475.71-4.9 476.86-3.7 478.81-3.7L478.81-3.7Q480.21-3.7 481.46-4.13 482.71-4.55 484.06-5.35L484.06-5.35ZM500.21 0.7Q496.76 0.7 493.76-0.85 490.76-2.4 488.98-5.25 487.21-8.1 487.21-11.75L487.21-11.75Q487.21-15.45 488.98-18.28 490.76-21.1 493.76-22.65 496.76-24.2 500.21-24.2L500.21-24.2Q503.61-24.2 506.58-22.65 509.56-21.1 511.36-18.25 513.16-15.4 513.16-11.75L513.16-11.75Q513.16-8.1 511.41-5.25 509.66-2.4 506.68-0.85 503.71 0.7 500.21 0.7L500.21 0.7ZM500.21-3.25Q502.46-3.25 504.26-4.3 506.06-5.35 507.08-7.28 508.11-9.2 508.11-11.75L508.11-11.75Q508.11-14.3 507.08-16.23 506.06-18.15 504.26-19.2 502.46-20.25 500.21-20.25L500.21-20.25Q496.76-20.25 494.53-17.93 492.31-15.6 492.31-11.75L492.31-11.75Q492.31-7.9 494.53-5.58 496.76-3.25 500.21-3.25L500.21-3.25ZM535.3-24.2Q538.25-24.2 540.75-22.65 543.25-21.1 544.75-18.32 546.25-15.55 546.25-12L546.25-12Q546.25-8.35 544.63-5.45 543-2.55 540.2-0.93 537.4 0.7 534 0.7L534 0.7Q529.55 0.7 525.8-2.7L525.8-2.7 525.8 6.95 531.25 6.95 531.25 10.9 515.75 10.9 515.75 6.95 521 6.95 521-19.6 515.75-19.6 515.75-23.55 525.8-23.55 525.8-19Q527.75-21.4 530.25-22.8 532.75-24.2 535.3-24.2L535.3-24.2ZM532.95-3.5Q535.3-3.5 537.18-4.58 539.05-5.65 540.1-7.6 541.15-9.55 541.15-12.05L541.15-12.05Q541.15-15.6 539.13-17.82 537.1-20.05 533.95-20.05L533.95-20.05Q531.8-20.05 529.7-18.75 527.6-17.45 525.8-15.15L525.8-15.15 525.8-6.4Q529.4-3.5 532.95-3.5L532.95-3.5ZM562.45-13.9Q567.05-12.65 569.53-10.78 572-8.9 572-5.75L572-5.75Q572-2.85 569.55-1.07 567.1 0.7 563.5 0.7L563.5 0.7Q561 0.7 558.58-0.18 556.15-1.05 554.25-2.6L554.25-2.6 554.25 0.05 550.45 0.05 550.45-7.6 552.6-7.8Q554.5-5.65 557.38-4.13 560.25-2.6 563-2.6L563-2.6Q564.85-2.6 565.9-3.3 566.95-4 566.95-5.3L566.95-5.3Q566.95-6.8 565.3-7.78 563.65-8.75 559.9-9.75L559.9-9.75Q555.4-10.95 552.98-12.78 550.55-14.6 550.55-17.55L550.55-17.55Q550.55-19.4 551.58-20.93 552.6-22.45 554.48-23.33 556.35-24.2 558.8-24.2L558.8-24.2Q561.2-24.2 563.38-23.4 565.55-22.6 567.15-21.15L567.15-21.15 567.15-23.55 570.9-23.55 570.9-15.95 568.7-15.7Q567.3-18.05 564.88-19.48 562.45-20.9 560.05-20.9L560.05-20.9Q558.1-20.9 556.85-20.13 555.6-19.35 555.6-18.1L555.6-18.1Q555.6-16.75 557.25-15.83 558.9-14.9 562.45-13.9L562.45-13.9Z" opacity="1" transform="matrix(1,0,0,1,0,0)" fill="#000000" class="undefined-text-1" data-fill-palette-color="secondary" id="text-1"></path></svg></g></svg></g></svg></g></svg></g><g transform="matrix(1,0,0,1,36.672,0)"><svg viewBox="0 0 118.656 87.05786525461276" height="87.05786525461276" width="118.656"><g><svg xmlns="http://www.w3.org/2000/svg" xmlns:xlink="http://www.w3.org/1999/xlink" version="1.0" x="0" y="0" viewBox="13.200200080871582 23.166500091552734 73.59959411621094 53.999996185302734" enable-background="new 0 0 100 100" xml:space="preserve" height="87.05786525461276" width="118.656" class="icon-icon-0" data-fill-palette-color="accent" id="icon-0"><g fill="#000000" data-fill-palette-color="accent"><g fill="#000000" data-fill-palette-color="accent"><path d="M85.6 28.167h-4.8c-0.033 0-0.061 0.016-0.094 0.019v-3.819c0-0.663-0.537-1.2-1.2-1.2-18.494 0-27.115 4.129-29.506 5.528-2.391-1.399-11.012-5.529-29.506-5.528-0.663 0-1.2 0.537-1.2 1.2v3.819c-0.033-0.003-0.06-0.019-0.094-0.019h-4.8c-0.663 0-1.2 0.537-1.2 1.2v46.6c0 0.663 0.537 1.2 1.2 1.199h21.2c0.663 0 1.2-0.537 1.2-1.199 0-0.663-0.537-1.2-1.2-1.2H15.6V30.567h3.6c0.033 0 0.061-0.016 0.094-0.019v38.471c0 0.663 0.537 1.2 1.2 1.2 20.808 0 28.675 5.429 28.801 5.518 0.041 0.029 0.087 0.042 0.129 0.066 0.023 0.013 0.043 0.03 0.067 0.041 0.029 0.014 0.057 0.026 0.088 0.037 0.137 0.052 0.278 0.085 0.42 0.085l0 0c0 0 0 0 0.001 0 0.014 0 0.026-0.008 0.04-0.008 0.128-0.004 0.254-0.031 0.377-0.076 0.029-0.011 0.057-0.02 0.084-0.033 0.031-0.014 0.056-0.035 0.086-0.052 0.039-0.022 0.081-0.033 0.117-0.059 0.077-0.055 7.928-5.519 28.802-5.519 0.663 0 1.2-0.537 1.2-1.2V30.548c0.033 0.003 0.06 0.019 0.094 0.019h3.6v44.2H62c-0.663 0-1.2 0.537-1.2 1.199 0 0.663 0.537 1.2 1.2 1.2h23.6c0.663 0 1.2-0.537 1.2-1.2V29.367C86.8 28.704 86.263 28.167 85.6 28.167zM21.694 25.572c17.172 0.176 25.156 4.082 27.106 5.208v41.927c-3.418-1.685-11.697-4.731-27.106-4.882V25.572zM78.306 67.825c-15.409 0.151-23.688 3.197-27.106 4.882V30.775c1.936-1.132 9.837-5.029 27.106-5.203V67.825z" fill="#000000" data-fill-palette-color="accent"></path><path d="M28.173 36.586c5.667 0.406 10.675 1.271 14.884 2.571 0.118 0.036 0.237 0.054 0.355 0.054 0.512 0 0.987-0.331 1.146-0.847 0.196-0.633-0.159-1.305-0.793-1.501-4.384-1.354-9.573-2.253-15.421-2.671-0.653-0.039-1.236 0.451-1.283 1.111C27.014 35.964 27.511 36.538 28.173 36.586z" fill="#000000" data-fill-palette-color="accent"></path><path d="M43.765 44.333c-4.384-1.354-9.573-2.253-15.421-2.672-0.653-0.035-1.236 0.451-1.283 1.112-0.048 0.661 0.45 1.235 1.112 1.282 5.667 0.406 10.675 1.271 14.884 2.571 0.118 0.036 0.237 0.054 0.355 0.054 0.512 0 0.987-0.331 1.146-0.846C44.753 45.201 44.398 44.529 43.765 44.333z" fill="#000000" data-fill-palette-color="accent"></path><path d="M43.765 51.802c-4.384-1.353-9.573-2.253-15.421-2.671-0.653-0.032-1.236 0.45-1.283 1.111-0.048 0.661 0.45 1.235 1.112 1.283 5.667 0.406 10.675 1.271 14.884 2.571 0.118 0.036 0.237 0.054 0.355 0.054 0.512 0 0.987-0.331 1.146-0.847C44.753 52.67 44.398 51.998 43.765 51.802z" fill="#000000" data-fill-palette-color="accent"></path><path d="M43.765 59.272c-4.384-1.353-9.573-2.253-15.421-2.672-0.653-0.041-1.236 0.451-1.283 1.112-0.048 0.661 0.45 1.235 1.112 1.282 5.667 0.406 10.675 1.271 14.884 2.571 0.118 0.036 0.237 0.054 0.355 0.054 0.512 0 0.987-0.331 1.146-0.846C44.753 60.14 44.398 59.468 43.765 59.272z" fill="#000000" data-fill-palette-color="accent"></path><path d="M56.588 39.211c0.117 0 0.237-0.018 0.355-0.054 4.21-1.3 9.218-2.165 14.884-2.571 0.661-0.047 1.159-0.622 1.112-1.283-0.047-0.661-0.619-1.148-1.283-1.111-5.849 0.419-11.037 1.318-15.421 2.671-0.633 0.196-0.988 0.868-0.793 1.501C55.602 38.88 56.076 39.211 56.588 39.211z" fill="#000000" data-fill-palette-color="accent"></path><path d="M56.588 46.68c0.117 0 0.237-0.018 0.355-0.054 4.21-1.3 9.218-2.165 14.884-2.571 0.661-0.047 1.159-0.622 1.112-1.282-0.047-0.661-0.619-1.144-1.283-1.112-5.849 0.419-11.037 1.318-15.421 2.672-0.633 0.196-0.988 0.868-0.793 1.501C55.602 46.349 56.076 46.68 56.588 46.68z" fill="#000000" data-fill-palette-color="accent"></path><path d="M56.588 54.15c0.117 0 0.237-0.018 0.355-0.054 4.21-1.3 9.218-2.165 14.884-2.571 0.661-0.047 1.159-0.622 1.112-1.283-0.047-0.662-0.619-1.141-1.283-1.111-5.849 0.419-11.037 1.318-15.421 2.671-0.633 0.196-0.988 0.868-0.793 1.501C55.602 53.819 56.076 54.15 56.588 54.15z" fill="#000000" data-fill-palette-color="accent"></path><path d="M71.656 56.6c-5.849 0.419-11.037 1.318-15.421 2.672-0.633 0.196-0.988 0.868-0.793 1.501 0.159 0.516 0.634 0.847 1.146 0.846 0.117 0 0.237-0.018 0.355-0.054 4.21-1.3 9.218-2.165 14.884-2.571 0.661-0.047 1.159-0.622 1.112-1.282C72.891 57.051 72.32 56.561 71.656 56.6z" fill="#000000" data-fill-palette-color="accent"></path></g></g></svg></g></svg></g><g></g></svg></g></svg></g></svg></g></svg></g><defs></defs></svg><rect width="320" height="360" fill="none" stroke="none" visibility="hidden"></rect></g></svg></g></svg>